<?xml version="1.0" ?><!DOCTYPE svg  PUBLIC '-//W3C//DTD SVG 1.1//EN'  'http://www.w3.org/Graphics/SVG/1.1/DTD/svg11.dtd'><svg enable-background="new 0 0 64 64" height="64px" id="Layer_1" version="1.1" viewBox="0 0 64 64" width="64px" xml:space="preserve" xmlns="http://www.w3.org/2000/svg" xmlns:xlink="http://www.w3.org/1999/xlink"><g id="Bitcoin_BTC"><g><g><g><g><g><g><g><circle cx="32" cy="32" fill="#FFFFFF" r="26.5"/></g></g></g><g><g><g><g><path d="M58,32c0-11.868-7.996-21.897-18.881-25.001C37.462,6.675,35.752,6.5,34,6.5           C19.365,6.5,7.5,18.365,7.5,33c0,7.773,3.348,14.765,8.679,19.612C20.565,55.987,26.051,58,32,58           C46.337,58,58,46.337,58,32z" fill="#FFE57F"/></g></g></g></g><g><g><g><path d="M42.852,7.825C50.99,12.349,56.5,21.029,56.5,31c0,14.635-11.865,26.5-26.5,26.5          c-3.868,0-7.539-0.836-10.852-2.325C22.955,57.291,27.336,58.5,32,58.5c14.635,0,26.5-11.865,26.5-26.5          C58.5,21.233,52.074,11.973,42.852,7.825z" fill="#FFD740"/></g></g></g><g><g><g><path d="M32,59C17.112,59,5,46.888,5,32S17.112,5,32,5s27,12.112,27,27S46.888,59,32,59z M32,6          C17.663,6,6,17.663,6,32s11.663,26,26,26s26-11.663,26-26S46.337,6,32,6z" fill="#37474F"/></g></g></g></g><g><g><g><g><circle cx="32" cy="32" fill="#FFD740" r="22.5"/></g></g></g><g><g><g><path d="M11.5,33c0-12.426,10.074-22.5,22.5-22.5c3.212,0,6.265,0.678,9.029,1.892          C39.77,10.554,36.009,9.5,32,9.5C19.574,9.5,9.5,19.574,9.5,32c0,9.214,5.541,17.129,13.471,20.608          C16.126,48.75,11.5,41.417,11.5,33z" fill="#FFCA28"/></g></g></g><g><g><g><path d="M41.029,11.392C47.874,15.25,52.5,22.583,52.5,31c0,12.426-10.074,22.5-22.5,22.5          c-3.212,0-6.265-0.678-9.029-1.892C24.23,53.446,27.991,54.5,32,54.5c12.426,0,22.5-10.074,22.5-22.5          C54.5,22.786,48.959,14.871,41.029,11.392z" fill="#FFE57F"/></g></g></g><g><g><g><path d="M32,55C19.317,55,9,44.683,9,32S19.317,9,32,9s23,10.317,23,23S44.683,55,32,55z M32,10          c-12.131,0-22,9.869-22,22s9.869,22,22,22s22-9.869,22-22S44.131,10,32,10z" fill="#37474F"/></g></g></g></g></g></g></g><g><g><g><g><path d="M44.256,28.217c0.535-3.585-2.194-5.512-5.926-6.797l1.211-4.855l-2.957-0.736l-1.179,4.728       c-0.776-0.193-1.575-0.377-2.368-0.557l1.187-4.758l-2.954-0.738l-1.211,4.854c-0.643-0.147-5.96-1.478-5.96-1.478       l-0.786,3.158c0,0,2.193,0.501,2.146,0.534c1.197,0.298,1.415,1.09,1.378,1.718l-3.317,13.3       c-0.147,0.366-0.518,0.91-1.354,0.705c0.029,0.041-2.148-0.537-2.148-0.537l-1.467,3.385c0,0,5.264,1.326,5.953,1.502       l-1.223,4.912l2.952,0.737l1.212-4.859c0.806,0.22,1.589,0.42,2.355,0.612l-1.208,4.834l2.957,0.737l1.223-4.901       c5.04,0.953,8.832,0.568,10.425-3.99c1.286-3.67-0.063-5.787-2.715-7.168C42.413,32.112,43.867,30.842,44.256,28.217       L44.256,28.217z M37.503,37.688c-0.915,3.67-7.094,1.688-9.099,1.188l1.623-6.506C32.031,32.869,38.456,33.858,37.503,37.688       L37.503,37.688z M38.416,28.165c-0.833,3.338-5.978,1.642-7.647,1.228l1.472-5.902C33.91,23.907,39.284,24.682,38.416,28.165z" fill="#FFFFFF"/></g></g></g><g><g><g><path d="M33.739,43.476c1.477,0.279,2.71,0.415,3.771,0.415c3.225,0,5.103-1.258,6.089-4.079       c1.081-3.084,0.317-5.106-2.474-6.56l-1.202-0.625l1.32-0.306c1.959-0.452,3.069-1.737,3.393-3.928       c0.425-2.845-1.299-4.772-5.593-6.251l-0.434-0.149l1.201-4.814l-1.986-0.494l-1.179,4.728l-0.485-0.121       c-0.773-0.192-1.568-0.375-2.357-0.555l-0.499-0.112l1.19-4.769l-1.983-0.496l-1.209,4.845l-0.478-0.109       c-0.524-0.12-4.156-1.026-5.484-1.358l-0.542,2.178c0.909,0.209,1.397,0.326,1.666,0.425c1.178,0.296,1.815,1.108,1.749,2.23       l-3.331,13.392c-0.351,0.89-1.054,1.27-1.905,1.082c-0.117-0.015-0.454-0.088-1.796-0.441l-1.062,2.45       c1.382,0.348,4.835,1.218,5.384,1.358l0.482,0.123l-1.222,4.909l1.981,0.495l1.215-4.87l0.493,0.135       c0.803,0.219,1.583,0.418,2.346,0.609l0.485,0.122l-1.208,4.833l1.986,0.495l1.216-4.874L33.739,43.476z M32.752,23.134       l0.485,0.121c0.167,0.042,0.37,0.087,0.602,0.138c1.69,0.375,4.52,1.002,5.613,2.768c0.434,0.7,0.543,1.5,0.325,2.376       c-0.274,1.097-1.141,2.405-3.711,2.405c-1.476,0-3.03-0.414-4.058-0.688l-0.969-0.246L32.752,23.134z M29.718,39.756       l-1.045-0.267l1.865-7.477l0.485,0.121c0.198,0.05,0.44,0.104,0.715,0.166c2.063,0.462,5.515,1.236,6.772,3.273       c0.459,0.744,0.578,1.58,0.353,2.485c-0.29,1.163-1.241,2.55-4.123,2.55C32.938,40.608,30.923,40.075,29.718,39.756z" fill="#FFE57F"/></g></g></g><g><g><g><path d="M31.913,49.225l-3.927-0.979l1.209-4.836c-0.456-0.115-0.918-0.234-1.388-0.359L26.598,47.9       l-3.922-0.979l1.223-4.914c-1.492-0.377-5.47-1.38-5.47-1.38l-0.571-0.144l1.873-4.319l0.416,0.11       c0.645,0.172,1.349,0.354,1.752,0.453l0.005-0.011l0.381,0.093c0.083,0.02,0.16,0.03,0.229,0.03c0.091,0,0.367,0,0.542-0.437       l3.295-13.234c0.024-0.55-0.293-0.933-1.013-1.111l-0.331-0.102c-0.388-0.1-1.13-0.276-1.806-0.431l-0.497-0.113l1.03-4.139       l0.485,0.121c0,0,3.997,1,5.474,1.361l1.213-4.859l3.923,0.98l-1.184,4.748c0.466,0.106,0.933,0.215,1.394,0.326l1.179-4.729       l3.928,0.979L38.926,21.1c2.931,1.066,6.454,2.978,5.825,7.191c-0.323,2.18-1.354,3.655-3.069,4.4       c2.447,1.669,3.096,4.034,1.986,7.2c-1.132,3.24-3.367,4.749-7.033,4.749c-1.009,0-2.155-0.114-3.492-0.348L31.913,49.225z        M29.199,47.517l1.986,0.495l1.216-4.874l0.464,0.088c1.477,0.279,2.71,0.415,3.771,0.415c3.225,0,5.103-1.258,6.089-4.079       c1.081-3.084,0.317-5.106-2.474-6.56l-1.202-0.625l1.32-0.306c1.959-0.452,3.069-1.737,3.393-3.928       c0.425-2.845-1.299-4.772-5.593-6.251l-0.434-0.149l1.201-4.814l-1.986-0.494l-1.179,4.728l-0.485-0.121       c-0.773-0.192-1.568-0.375-2.357-0.555l-0.499-0.112l1.19-4.769l-1.983-0.496l-1.209,4.845l-0.478-0.109       c-0.524-0.12-4.156-1.026-5.484-1.358l-0.542,2.178c0.909,0.209,1.397,0.326,1.666,0.425c1.178,0.296,1.815,1.108,1.749,2.23       l-3.331,13.392c-0.351,0.89-1.054,1.27-1.905,1.082c-0.117-0.015-0.454-0.088-1.796-0.441l-1.062,2.45       c1.382,0.348,4.835,1.218,5.384,1.358l0.482,0.123l-1.222,4.909l1.981,0.495l1.215-4.87l0.493,0.135       c0.803,0.219,1.583,0.418,2.346,0.609l0.485,0.122L29.199,47.517z M33.866,40.358c-1.802,0-3.818-0.533-5.022-0.853       l-1.045-0.267l1.865-7.477l0.485,0.121c0.198,0.05,0.44,0.104,0.715,0.166c2.063,0.462,5.515,1.236,6.772,3.273       c0.459,0.744,0.578,1.58,0.353,2.485C37.698,38.972,36.748,40.358,33.866,40.358z M29.009,38.516l0.09,0.023       c1.157,0.307,3.094,0.819,4.767,0.819c1.82,0,2.852-0.586,3.152-1.792c0.16-0.643,0.084-1.205-0.233-1.718       c-1.036-1.679-4.356-2.424-6.14-2.823c-0.087-0.02-0.171-0.039-0.251-0.057L29.009,38.516z M35.19,30.691       c-1.476,0-3.03-0.414-4.058-0.688l-0.969-0.246l1.714-6.874l0.485,0.121c0.167,0.042,0.37,0.087,0.602,0.138       c1.69,0.375,4.52,1.002,5.613,2.768c0.434,0.7,0.543,1.5,0.325,2.376C38.627,29.383,37.761,30.691,35.19,30.691z        M31.374,29.033l0.015,0.005c0.978,0.26,2.456,0.653,3.801,0.653c2.088,0,2.564-0.94,2.741-1.647       c0.152-0.613,0.085-1.139-0.205-1.607c-0.871-1.406-3.543-1.999-4.979-2.317c-0.047-0.011-0.094-0.021-0.14-0.031       L31.374,29.033z" fill="#37474F"/></g></g></g></g></g></svg>